Coordinates
version=1
nRows=12
nColumns=24
inDegrees=yes

Units are S.I. units (second, meters, Newtons, ...)
Angles are in degrees.

endheader
time	pelvis_tilt	pelvis_list	pelvis_rotation	pelvis_tx	pelvis_ty	pelvis_tz	hip_flexion_r	hip_adduction_r	hip_rotation_r	knee_angle_r	ankle_angle_r	subtalar_angle_r	mtp_angle_r	hip_flexion_l	hip_adduction_l	hip_rotation_l	knee_angle_l	ankle_angle_l	subtalar_angle_l	mtp_angle_l	lumbar_extension	lumbar_bending	lumbar_rotation
      1.14600000	      0.88936229	      2.79442677	     -2.42004253	      0.10070943	      1.06099614	      0.30997937	     21.30847731	     -2.54200626	     -1.44589525	    -70.93545122	     -0.54060643	    -14.74271699	      2.79704077	     12.34047031	      5.79463269	     -3.18001725	    -15.74224678	      7.06256812	      0.89680097	     -1.56327173	      3.72140087	     -0.65916104	     -0.52325396
      1.15016667	      0.88929414	      2.78992018	     -2.42707269	      0.10574802	      1.06161552	      0.30992810	     21.89922921	     -2.45115101	     -1.24496732	    -70.68967679	     -0.01471879	    -15.16740945	      2.73360694	     11.99564440	      5.82443429	     -3.12269284	    -15.67050082	      7.24971334	      0.89521159	     -1.56197687	      3.68132180	     -0.63680504	     -0.57002085
      1.15433333	      0.88558688	      2.76473516	     -2.41931237	      0.11082974	      1.06224464	      0.30990919	     22.46006748	     -2.33579334	     -1.06787509	    -70.35264718	      0.52146487	    -15.57481092	      2.66253532	     11.64874292	      5.82614976	     -3.09523014	    -15.59999835	      7.44849118	      0.88365233	     -1.56200064	      3.65268984	     -0.62884847	     -0.61663840
      1.15850000	      0.87488022	      2.75492864	     -2.41825002	      0.11590696	      1.06285365	      0.30986994	     23.01118460	     -2.23910101	     -0.88451300	    -69.93799281	      0.99338555	    -15.89902609	      2.59289516	     11.29945502	      5.84872290	     -3.04438342	    -15.50040163	      7.62373525	      0.88133091	     -1.56331103	      3.62498599	     -0.61591844	     -0.66291575
      1.16266667	      0.85783435	      2.73346408	     -2.41238804	      0.12100539	      1.06344418	      0.30985535	     23.54034346	     -2.12764940	     -0.71346137	    -69.43824317	      1.45142681	    -16.16697795	      2.51787661	     10.95244650	      5.85382092	     -3.00878161	    -15.39856404	      7.79831912	      0.86975346	     -1.56623312	      3.60701817	     -0.60251384	     -0.70898854
      1.16683333	      0.84395157	      2.71966189	     -2.41386979	      0.12609502	      1.06402665	      0.30980795	     24.04749226	     -2.02854356	     -0.53869239	    -68.86360987	      1.86334042	    -16.36502925	      2.45182664	     10.59272914	      5.87228944	     -2.94673553	    -15.26846560	      7.95307646	      0.86116551	     -1.56960982	      3.59244059	     -0.57870451	     -0.75341056
      1.17100000	      0.81024016	      2.68659073	     -2.38927070	      0.13115560	      1.06457102	      0.30984033	     24.54286708	     -1.90469207	     -0.38174892	    -68.18554893	      2.08146303	    -16.44164829	      2.42545612	     10.26129995	      5.85914045	     -2.87850673	    -15.15553815	      8.02876587	      0.85201336	     -1.57114038	      3.52369523	     -0.59031809	     -0.77511515
      1.17516667	      0.81374179	      2.68746554	     -2.40414017	      0.13632199	      1.06515721	      0.30976972	     24.97676134	     -1.82624196	     -0.21683346	    -67.46720059	      2.59946542	    -16.60710455	      2.36126391	      9.86061179	      5.89843172	     -2.82697225	    -14.98551745	      8.23477794	      0.80707686	     -1.57533925	      3.57320302	     -0.54099912	     -0.82617885
      1.17933333	      0.78464545	      2.66891319	     -2.39051572	      0.14144252	      1.06567600	      0.30975859	     25.41525941	     -1.72439456	     -0.07084631	    -66.65495870	      2.96954133	    -16.64177695	      2.29283571	      9.50466121	      5.90748564	     -2.76062095	    -14.83387138	      8.38454364	      0.77069791	     -1.58208180	      3.55946623	     -0.52900589	     -0.87369484
      1.18350000	      0.72664446	      2.65653628	     -2.37297198	      0.14648628	      1.06609931	      0.30979195	     25.86872879	     -1.62447509	      0.07609784	    -65.76513440	      3.14224296	    -16.64890790	      2.26972738	      9.19019014	      5.91505880	     -2.69573694	    -14.69134993	      8.44598077	      0.75861268	     -1.58444529	      3.48585979	     -0.55200181	     -0.89307348
      1.18766667	      0.72134689	      2.64535963	     -2.37971511	      0.15170715	      1.06663052	      0.30975707	     26.21834756	     -1.53528013	      0.21765164	    -64.79448320	      3.49866659	    -16.62913067	      2.21489669	      8.78233065	      5.93896330	     -2.61778676	    -14.48997591	      8.61079724	      0.69677549	     -1.59068613	      3.57861227	     -0.50832615	     -0.93738212
      1.19183333	      0.64777962	      2.63899673	     -2.36566418	      0.15676387	      1.06698874	      0.30982654	     26.63376548	     -1.44002402	      0.35701257	    -63.75923265	      3.66869553	    -16.60570785	      2.19233121	      8.47825030	      5.94935683	     -2.55078762	    -14.33551201	      8.67619757	      0.67346064	     -1.59354393	      3.49974831	     -0.53671004	     -0.95749541
